<?xml version="1.0" encoding="UTF-8"?>
<svg width="51px" height="51px" viewBox="0 0 51 51" version="1.1" xmlns="http://www.w3.org/2000/svg" xmlns:xlink="http://www.w3.org/1999/xlink">
    <!-- Generator: Sketch 52.3 (67297) - http://www.bohemiancoding.com/sketch -->
    <title>语音导览播放器_关闭</title>
    <desc>Created with Sketch.</desc>
    <g id="Page-2" stroke="none" stroke-width="1" fill="none" fill-rule="evenodd">
        <g id="语音导览播放器_关闭" fill="#6AA5FC">
            <path d="M24.4558441,24.4558441 L24.4558441,8.45584412 C24.4558441,7.90355937 24.9035594,7.45584412 25.4558441,7.45584412 C26.0081289,7.45584412 26.4558441,7.90355937 26.4558441,8.45584412 L26.4558441,24.4558441 L42.4558441,24.4558441 C43.0081289,24.4558441 43.4558441,24.9035594 43.4558441,25.4558441 C43.4558441,26.0081289 43.0081289,26.4558441 42.4558441,26.4558441 L26.4558441,26.4558441 L26.4558441,42.4558441 C26.4558441,43.0081289 26.0081289,43.4558441 25.4558441,43.4558441 C24.9035594,43.4558441 24.4558441,43.0081289 24.4558441,42.4558441 L24.4558441,26.4558441 L8.45584412,26.4558441 C7.90355937,26.4558441 7.45584412,26.0081289 7.45584412,25.4558441 C7.45584412,24.9035594 7.90355937,24.4558441 8.45584412,24.4558441 L24.4558441,24.4558441 Z" id="Combined-Shape" transform="translate(25.455844, 25.455844) rotate(-315.000000) translate(-25.455844, -25.455844) "></path>
        </g>
    </g>
</svg>